<svg width="16" height="16" viewBox="0 0 16 16" fill="none" xmlns="http://www.w3.org/2000/svg">
<g clip-path="url(#clip0)">
<path fill-rule="evenodd" clip-rule="evenodd" d="M13.8303 4.61941C13.8358 4.61344 13.8414 4.60755 13.8472 4.60175C14.1685 4.28051 14.3454 3.84554 14.3454 3.37738C14.3454 2.90921 14.1685 2.47425 13.8472 2.153C13.5257 1.83146 13.0907 1.65453 12.6225 1.65453C12.1627 1.65453 11.7349 1.82522 11.4154 2.13597C11.4101 2.14166 11.4047 2.14727 11.3992 2.1528L10.1738 3.37818L12.6227 5.82699L13.8303 4.61941ZM10.5578 1.36162C10.5654 1.35305 10.5733 1.34466 10.5815 1.33646C11.1207 0.797003 11.8455 0.5 12.6225 0.5C13.3993 0.5 14.1243 0.797003 14.6635 1.33646C15.203 1.87562 15.5 2.60038 15.5 3.37738C15.5 4.14693 15.2086 4.86524 14.6789 5.40275C14.6741 5.40801 14.6691 5.41319 14.664 5.41831L5.64302 14.4389C5.5577 14.5242 5.45244 14.5772 5.3423 14.598L1.21259 15.484C1.16901 15.4945 1.12384 15.5 1.07786 15.5L1.06841 15.4999C0.995901 15.4988 0.925529 15.4841 0.860423 15.4576C0.711879 15.3972 0.590735 15.276 0.534074 15.1179C0.511827 15.0562 0.499922 14.9903 0.5 14.9226C0.499971 14.8771 0.505338 14.8324 0.515609 14.7893L1.40489 10.6443C1.43035 10.5258 1.49067 10.4238 1.57271 10.3464L8.92546 2.99394C8.93291 2.98558 8.94064 2.97738 8.94866 2.96936C8.95675 2.96126 8.96502 2.95345 8.97346 2.94594L10.5578 1.36162ZM2.49788 11.0538L9.35749 4.19443L11.8064 6.64323L4.94715 13.502L1.82912 14.1709L2.49788 11.0538Z" fill="#454957"/>
<path fill-rule="evenodd" clip-rule="evenodd" d="M12.724 0.670659C12.017 0.670659 11.3622 0.940151 10.8754 1.4272C10.8717 1.43091 10.8682 1.43466 10.8648 1.43846L10.8582 1.44592L9.22511 3.07893L9.21788 3.08537C9.21413 3.08871 9.21042 3.09221 9.20676 3.09587C9.20312 3.09952 9.19949 3.10335 9.19617 3.10708L9.18974 3.1143L1.66524 10.6386L1.66165 10.6419C1.62549 10.676 1.59923 10.7204 1.58798 10.7727L0.678384 15.0124L0.677514 15.016C0.673013 15.0349 0.670669 15.0545 0.670682 15.0744L0.670682 15.075C0.670648 15.1044 0.675819 15.1332 0.685616 15.1604L0.685838 15.161C0.710554 15.23 0.763684 15.2837 0.829979 15.3107C0.858458 15.3223 0.88896 15.3287 0.920272 15.3293L0.921193 15.3293L0.925889 15.3293L0.927007 15.3293C0.946728 15.3292 0.9661 15.3268 0.984857 15.3223L0.989033 15.3213L5.21768 14.4141L5.22177 14.4134C5.27017 14.4042 5.31616 14.3812 5.35415 14.3432L14.5731 5.12451C14.5754 5.1222 14.5777 5.11985 14.5799 5.11749L14.5833 5.11387L14.5867 5.11036C15.0649 4.62511 15.3293 3.97612 15.3293 3.27588C15.3293 2.5689 15.0598 1.91412 14.5727 1.42733C14.086 0.940291 13.4307 0.670659 12.724 0.670659ZM10.401 0.953101C11.0163 0.337555 11.8428 0 12.724 0C13.6048 0 14.4316 0.337497 15.0469 0.952974C15.6624 1.56819 16 2.39474 16 3.27588C16 4.14702 15.67 4.96486 15.0676 5.57788C15.061 5.58491 15.0542 5.59187 15.0474 5.59874L5.82839 14.8174C5.69317 14.9526 5.52572 15.0376 5.35065 15.0715L1.13765 15.9753C1.06912 15.9915 0.998116 16 0.925889 16L0.923065 16L0.913408 15.9999L0.911271 15.9999C0.7947 15.9982 0.681688 15.9744 0.577373 15.932C0.340156 15.8355 0.145739 15.6416 0.0545991 15.3876C0.0190321 15.2889 -8.73326e-05 15.1831 2.99901e-07 15.0745C-2.40853e-05 15.003 0.00826677 14.9327 0.0241123 14.8648L0.023412 14.868L0.0250704 14.8607C0.024748 14.8621 0.0244287 14.8634 0.0241123 14.8648L0.93222 10.6321C0.972594 10.4441 1.0681 10.2813 1.19759 10.1577L1.19448 10.1608L1.20156 10.154C1.20023 10.1552 1.19891 10.1565 1.19759 10.1577L8.70258 2.65299C8.70017 2.65564 8.69777 2.65829 8.69539 2.66097L8.70258 2.65299C8.71224 2.6424 8.72217 2.632 8.73237 2.6218M10.401 0.953101C10.3906 0.963507 10.3804 0.97421 10.3706 0.985022L10.401 0.953101ZM11.2565 1.76685C11.6478 1.3863 12.1698 1.17988 12.724 1.17988C13.2884 1.17988 13.8191 1.39391 14.2127 1.78751C14.6061 2.18083 14.8201 2.71158 14.8201 3.27588C14.8201 3.84011 14.6061 4.37079 14.2129 4.7641C14.2102 4.76674 14.2077 4.76941 14.2052 4.7721L14.2004 4.77731L12.7241 6.2535L9.74725 3.2767L11.2367 1.78731C11.2392 1.78484 11.2416 1.78231 11.244 1.77971L11.2501 1.77311L11.2565 1.76685ZM11.7296 2.24237C11.7235 2.24881 11.7173 2.2552 11.7109 2.26153L10.6957 3.2767L12.7242 5.30505L13.7167 4.31252C13.7238 4.30498 13.731 4.29753 13.7383 4.29018C14.0016 4.02691 14.1494 3.66846 14.1494 3.27588C14.1494 2.8833 14.0018 2.52501 13.7385 2.26173C13.4749 1.99813 13.1166 1.85054 12.724 1.85054C12.341 1.85054 11.9908 1.99104 11.7296 2.24237ZM9.38729 3.63665L12.3642 6.61344L5.04725 13.9299L1.25699 14.743L2.06996 10.9537L9.38729 3.63665ZM2.6842 11.288L2.13029 13.8698L4.713 13.3157L11.4157 6.61343L9.38729 4.5851L2.6842 11.288Z" fill="#454957"/>
</g>
<defs>
<clipPath id="clip0">
<rect width="16" height="16" fill="white"/>
</clipPath>
</defs>
</svg>
