<svg width="20" height="20" viewBox="0 0 20 20" fill="none" xmlns="http://www.w3.org/2000/svg">
<path fill-rule="evenodd" clip-rule="evenodd" d="M7.29171 6.87499C8.09712 6.87499 8.75004 6.22208 8.75004 5.41666C8.75004 4.61125 8.09712 3.95833 7.29171 3.95833C6.48629 3.95833 5.83337 4.61125 5.83337 5.41666C5.83337 6.22208 6.48629 6.87499 7.29171 6.87499ZM12.7084 6.87499C13.5138 6.87499 14.1667 6.22208 14.1667 5.41666C14.1667 4.61125 13.5138 3.95833 12.7084 3.95833C11.903 3.95833 11.25 4.61125 11.25 5.41666C11.25 6.22208 11.903 6.87499 12.7084 6.87499ZM8.75004 10C8.75004 10.8054 8.09712 11.4583 7.29171 11.4583C6.48629 11.4583 5.83337 10.8054 5.83337 10C5.83337 9.19458 6.48629 8.54166 7.29171 8.54166C8.09712 8.54166 8.75004 9.19458 8.75004 10ZM12.7084 11.4583C13.5138 11.4583 14.1667 10.8054 14.1667 10C14.1667 9.19458 13.5138 8.54166 12.7084 8.54166C11.903 8.54166 11.25 9.19458 11.25 10C11.25 10.8054 11.903 11.4583 12.7084 11.4583ZM8.75004 14.5833C8.75004 15.3887 8.09712 16.0417 7.29171 16.0417C6.48629 16.0417 5.83337 15.3887 5.83337 14.5833C5.83337 13.7779 6.48629 13.125 7.29171 13.125C8.09712 13.125 8.75004 13.7779 8.75004 14.5833ZM12.7084 16.0417C13.5138 16.0417 14.1667 15.3887 14.1667 14.5833C14.1667 13.7779 13.5138 13.125 12.7084 13.125C11.903 13.125 11.25 13.7779 11.25 14.5833C11.25 15.3887 11.903 16.0417 12.7084 16.0417Z" fill="#747988"/>
</svg>
