<svg width="16" height="16" viewBox="0 0 16 16" fill="none" xmlns="http://www.w3.org/2000/svg">
<path d="M9.2826 7.99994L14.7339 2.54847C15.0887 2.19387 15.0887 1.62054 14.7339 1.26595C14.3793 0.911351 13.806 0.911351 13.4514 1.26595L7.99991 6.71742L2.5486 1.26595C2.19383 0.911351 1.62067 0.911351 1.26607 1.26595C0.911309 1.62054 0.911309 2.19387 1.26607 2.54847L6.71738 7.99994L1.26607 13.4514C0.911309 13.806 0.911309 14.3793 1.26607 14.7339C1.44279 14.9108 1.67514 14.9997 1.90733 14.9997C2.13952 14.9997 2.37171 14.9108 2.5486 14.7339L7.99991 9.28247L13.4514 14.7339C13.6283 14.9108 13.8605 14.9997 14.0926 14.9997C14.3248 14.9997 14.557 14.9108 14.7339 14.7339C15.0887 14.3793 15.0887 13.806 14.7339 13.4514L9.2826 7.99994Z" fill="#A2A4AB" stroke="#A2A4AB" stroke-width="0.999182"/>
</svg>
