<svg width="16" height="16" viewBox="0 0 16 16" fill="none" xmlns="http://www.w3.org/2000/svg">
<g clip-path="url(#clip0)">
<path fill-rule="evenodd" clip-rule="evenodd" d="M6.40794 0C2.87447 0 0 2.87447 0 6.40794C0 9.94142 2.8745 12.8159 6.40797 12.8159C7.81686 12.8159 9.1193 12.3572 10.1775 11.5845L14.3014 15.7085C14.4953 15.9024 14.7506 16 15.005 16C15.2594 16 15.5146 15.9024 15.7085 15.7085C16.0974 15.3196 16.0974 14.6903 15.7085 14.3014L11.5845 10.1775C12.3572 9.1193 12.8159 7.81686 12.8159 6.40797C12.8159 2.87449 9.94142 0 6.40794 0ZM1.99007 6.40794C1.99007 3.9719 3.97193 1.99004 6.40797 1.99004C8.84402 1.99004 10.8259 3.9719 10.8259 6.40794C10.8259 8.84398 8.84399 10.8258 6.40797 10.8258C3.97193 10.8258 1.99007 8.84398 1.99007 6.40794Z" fill="#747988"/>
</g>
<defs>
<clipPath id="clip0">
<rect width="16" height="16" fill="white"/>
</clipPath>
</defs>
</svg>
