<svg width="28" height="28" viewBox="0 0 28 28" fill="none" xmlns="http://www.w3.org/2000/svg">
<circle cx="14" cy="14" r="14" fill="white"/>
<path fill-rule="evenodd" clip-rule="evenodd" d="M14 5.25C12.3628 5.25 10.7941 5.91812 9.63869 7.10498C8.48347 8.2916 7.8357 9.89953 7.8357 11.5747V15.8524C7.83519 16.047 7.7765 16.2365 7.66889 16.3949L6.66904 17.8724C6.48912 18.0821 6.37131 18.3393 6.32856 18.614C6.28491 18.8944 6.32122 19.1819 6.43345 19.4421C6.5457 19.7023 6.72941 19.9246 6.96337 20.0814C7.19741 20.2382 7.4714 20.3225 7.75216 20.3232L7.75281 20.3232H10.8988C11.074 20.9806 11.4446 21.5689 11.9629 22.004C12.5369 22.4859 13.2565 22.75 14 22.75C14.7435 22.75 15.4631 22.4859 16.0371 22.004C16.5554 21.5689 16.926 20.9806 17.1012 20.3232H20.2472L20.2478 20.3232C20.5286 20.3225 20.8026 20.2382 21.0366 20.0814C21.2706 19.9246 21.4543 19.7023 21.5665 19.4421C21.6788 19.1819 21.7151 18.8944 21.6714 18.614C21.6287 18.3393 21.5109 18.0821 21.331 17.8724L20.3308 16.3945C20.2232 16.2361 20.1648 16.0466 20.1643 15.8521L20.1643 11.5747C20.1643 9.89953 19.5165 8.2916 18.3613 7.10498C17.2059 5.91812 15.6372 5.25 14 5.25ZM10.8529 8.33185C11.6888 7.47322 12.821 6.99221 14 6.99221C15.179 6.99221 16.3112 7.47322 17.1471 8.33185C17.9832 9.19072 18.4542 10.3571 18.4542 11.5747V15.8527L18.4542 15.8533C18.4554 16.3999 18.6194 16.9339 18.9247 17.3833L19.7344 18.5809H8.26556L9.07535 17.3832C9.38071 16.9337 9.54458 16.3999 9.54584 15.8533L9.54584 15.8527V11.5747C9.54584 10.3571 10.0168 9.19072 10.8529 8.33185ZM14.8627 20.7205C14.6098 20.9048 14.3085 21.0037 14 21.0048C13.6915 21.0037 13.3902 20.9048 13.1373 20.7205C12.9886 20.6122 12.8608 20.4774 12.7595 20.3232H15.2405C15.1392 20.4774 15.0114 20.6122 14.8627 20.7205Z" fill="#454957"/>
<path fill-rule="evenodd" clip-rule="evenodd" d="M14 26.25C20.7655 26.25 26.25 20.7655 26.25 14C26.25 7.23451 20.7655 1.75 14 1.75C7.23451 1.75 1.75 7.23451 1.75 14C1.75 20.7655 7.23451 26.25 14 26.25ZM14 28C21.732 28 28 21.732 28 14C28 6.26801 21.732 0 14 0C6.26801 0 0 6.26801 0 14C0 21.732 6.26801 28 14 28Z" fill="#454957"/>
</svg>
