<svg width="22" height="22" viewBox="0 0 22 22" fill="none" xmlns="http://www.w3.org/2000/svg">
<path fill-rule="evenodd" clip-rule="evenodd" d="M17.3628 12.6967C16.4257 12.6967 15.6661 11.9371 15.6661 11C15.6661 10.063 16.4257 9.30334 17.3628 9.30334C18.2998 9.30334 19.0594 10.063 19.0594 11C19.0594 11.9371 18.2998 12.6967 17.3628 12.6967ZM11.0003 12.6967C10.0632 12.6967 9.30362 11.9371 9.30362 11C9.30362 10.063 10.0632 9.30334 11.0003 9.30334C11.9373 9.30334 12.6969 10.063 12.6969 11C12.6969 11.9371 11.9373 12.6967 11.0003 12.6967ZM2.94112 11C2.94112 11.9371 3.70074 12.6967 4.63778 12.6967C5.57483 12.6967 6.33445 11.9371 6.33445 11C6.33445 10.063 5.57483 9.30334 4.63778 9.30334C3.70074 9.30334 2.94112 10.063 2.94112 11Z" fill="white"/>
</svg>
