<svg width="16" height="16" viewBox="0 0 16 16" fill="none" xmlns="http://www.w3.org/2000/svg">
<path fill-rule="evenodd" clip-rule="evenodd" d="M3.09326 0H12.7201C14.1118 0 15.2425 1.13064 15.2425 2.52243V9.66834C15.2425 11.0601 14.1118 12.1908 12.7201 12.1908H3.09326C1.70148 12.1908 0.570831 11.0601 0.570831 9.66834V2.52243C0.570831 1.13064 1.70148 0 3.09326 0ZM12.7201 10.4102C13.1296 10.4102 13.462 10.0779 13.462 9.66834V2.52243C13.462 2.11291 13.1296 1.78054 12.7201 1.78054H3.09326C2.68374 1.78054 2.35137 2.11291 2.35137 2.52243V9.66834C2.35137 10.0779 2.68374 10.4102 3.09326 10.4102H12.7201ZM6.65449 14.641C6.65449 13.9496 7.21536 13.3887 7.9068 13.3887C8.59825 13.3887 9.15912 13.9496 9.15912 14.641C9.15912 15.3325 8.59825 15.8933 7.9068 15.8933C7.21536 15.8933 6.65449 15.3325 6.65449 14.641ZM4.92414 15.4185C5.35191 15.4185 5.69868 15.0718 5.69868 14.644C5.69868 14.2162 5.35191 13.8695 4.92414 13.8695C4.49638 13.8695 4.14961 14.2162 4.14961 14.644C4.14961 15.0718 4.49638 15.4185 4.92414 15.4185ZM3.19119 14.644C3.19119 15.0718 2.84442 15.4185 2.41666 15.4185C1.98889 15.4185 1.64212 15.0718 1.64212 14.644C1.64212 14.2162 1.98889 13.8695 2.41666 13.8695C2.84442 13.8695 3.19119 14.2162 3.19119 14.644ZM10.8919 15.4185C11.3197 15.4185 11.6665 15.0718 11.6665 14.644C11.6665 14.2162 11.3197 13.8695 10.8919 13.8695C10.4642 13.8695 10.1174 14.2162 10.1174 14.644C10.1174 15.0718 10.4642 15.4185 10.8919 15.4185ZM14.1713 14.644C14.1713 15.0718 13.8246 15.4185 13.3968 15.4185C12.969 15.4185 12.6223 15.0718 12.6223 14.644C12.6223 14.2162 12.969 13.8695 13.3968 13.8695C13.8246 13.8695 14.1713 14.2162 14.1713 14.644Z" fill="#454957"/>
</svg>
