<svg width="24" height="24" viewBox="0 0 24 24" fill="none" xmlns="http://www.w3.org/2000/svg">
<path fill-rule="evenodd" clip-rule="evenodd" d="M12 0C15.3133 0 18 2.68673 18 6C18 8.97253 15.8374 11.4403 13 11.9166V23C13 23.5523 12.5523 24 12 24C11.4477 24 11 23.5523 11 23V11.9166C8.16263 11.4403 6 8.97253 6 6C6 2.68673 8.68673 0 12 0ZM8.00002 6C8.00002 8.2087 9.7913 9.99998 12 9.99998C14.2087 9.99998 16 8.2087 16 6C16 3.7913 14.2087 2.00002 12 2.00002C9.7913 2.00002 8.00002 3.7913 8.00002 6ZM10.0002 4.99997C10.0002 4.44797 10.4482 3.99999 11.0002 3.99999C11.5522 3.99999 12.0001 4.44802 12.0001 5.00002C12.0001 5.55202 11.5522 6.00001 11.0002 6.00001C10.4482 6.00001 10.0002 5.55197 10.0002 4.99997Z" fill="#454957"/>
</svg>
